<mxfile host="Electron" agent="Mozilla/5.0 (Macintosh; Intel Mac OS X 10_15_7) AppleWebKit/537.36 (KHTML, like Gecko) draw.io/24.7.17 Chrome/128.0.6613.36 Electron/32.0.1 Safari/537.36" version="24.7.17">
  <diagram name="Page-1" id="2YBvvXClWsGukQMizWep">
    <mxGraphModel dx="1671" dy="555" grid="1" gridSize="10" guides="1" tooltips="1" connect="1" arrows="1" fold="1" page="1" pageScale="1" pageWidth="850" pageHeight="1100" math="0" shadow="0">
      <root>
        <mxCell id="0" />
        <mxCell id="1" parent="0" />
        <mxCell id="aM9ryv3xv72pqoxQDRHE-1" value="Khách hàng" style="shape=umlLifeline;perimeter=lifelinePerimeter;whiteSpace=wrap;html=1;container=0;dropTarget=0;collapsible=0;recursiveResize=0;outlineConnect=0;portConstraint=eastwest;newEdgeStyle={&quot;edgeStyle&quot;:&quot;elbowEdgeStyle&quot;,&quot;elbow&quot;:&quot;vertical&quot;,&quot;curved&quot;:0,&quot;rounded&quot;:0};" parent="1" vertex="1">
          <mxGeometry x="40" y="40" width="100" height="440" as="geometry" />
        </mxCell>
        <mxCell id="aM9ryv3xv72pqoxQDRHE-5" value="Hệ thống" style="shape=umlLifeline;perimeter=lifelinePerimeter;whiteSpace=wrap;html=1;container=0;dropTarget=0;collapsible=0;recursiveResize=0;outlineConnect=0;portConstraint=eastwest;newEdgeStyle={&quot;edgeStyle&quot;:&quot;elbowEdgeStyle&quot;,&quot;elbow&quot;:&quot;vertical&quot;,&quot;curved&quot;:0,&quot;rounded&quot;:0};" parent="1" vertex="1">
          <mxGeometry x="350" y="40" width="100" height="440" as="geometry" />
        </mxCell>
        <mxCell id="aM9ryv3xv72pqoxQDRHE-6" value="&lt;span style=&quot;color: rgba(0, 0, 0, 0); font-family: monospace; font-size: 0px; text-align: start;&quot;&gt;%3CmxGraphModel%3E%3Croot%3E%3CmxCell%20id%3D%220%22%2F%3E%3CmxCell%20id%3D%221%22%20parent%3D%220%22%2F%3E%3CmxCell%20id%3D%222%22%20value%3D%22Interaction%20heading%22%20style%3D%22shape%3DumlFrame%3BwhiteSpace%3Dwrap%3Bhtml%3D1%3BpointerEvents%3D0%3BrecursiveResize%3D0%3Bcontainer%3D1%3Bcollapsible%3D0%3Bwidth%3D170%3B%22%20vertex%3D%221%22%20parent%3D%221%22%3E%3CmxGeometry%20x%3D%2210%22%20y%3D%22220%22%20width%3D%22290%22%20height%3D%22250%22%20as%3D%22geometry%22%2F%3E%3C%2FmxCell%3E%3CmxCell%20id%3D%223%22%20value%3D%22%5Bconstraint1%5D%22%20style%3D%22text%3Bhtml%3D1%3B%22%20vertex%3D%221%22%20parent%3D%222%22%3E%3CmxGeometry%20width%3D%22100%22%20height%3D%2220%22%20relative%3D%221%22%20as%3D%22geometry%22%3E%3CmxPoint%20x%3D%2220%22%20y%3D%2240%22%20as%3D%22offset%22%2F%3E%3C%2FmxGeometry%3E%3C%2FmxCell%3E%3CmxCell%20id%3D%224%22%20value%3D%22%5Bconstraint2%5D%22%20style%3D%22line%3BstrokeWidth%3D1%3Bdashed%3D1%3BlabelPosition%3Dcenter%3BverticalLabelPosition%3Dbottom%3Balign%3Dleft%3BverticalAlign%3Dtop%3BspacingLeft%3D20%3BspacingTop%3D15%3Bhtml%3D1%3BwhiteSpace%3Dwrap%3B%22%20vertex%3D%221%22%20parent%3D%222%22%3E%3CmxGeometry%20y%3D%22125%22%20width%3D%22290%22%20height%3D%2210%22%20as%3D%22geometry%22%2F%3E%3C%2FmxCell%3E%3C%2Froot%3E%3C%2FmxGraphModel%3E&lt;/span&gt;" style="html=1;points=[];perimeter=orthogonalPerimeter;outlineConnect=0;targetShapes=umlLifeline;portConstraint=eastwest;newEdgeStyle={&quot;edgeStyle&quot;:&quot;elbowEdgeStyle&quot;,&quot;elbow&quot;:&quot;vertical&quot;,&quot;curved&quot;:0,&quot;rounded&quot;:0};" parent="aM9ryv3xv72pqoxQDRHE-5" vertex="1">
          <mxGeometry x="45" y="80" width="10" height="320" as="geometry" />
        </mxCell>
        <mxCell id="VOvEn0KjgjUTMuamSDGO-1" value="Bếp/Nhân viên" style="shape=umlLifeline;perimeter=lifelinePerimeter;whiteSpace=wrap;html=1;container=0;dropTarget=0;collapsible=0;recursiveResize=0;outlineConnect=0;portConstraint=eastwest;newEdgeStyle={&quot;edgeStyle&quot;:&quot;elbowEdgeStyle&quot;,&quot;elbow&quot;:&quot;vertical&quot;,&quot;curved&quot;:0,&quot;rounded&quot;:0};" vertex="1" parent="1">
          <mxGeometry x="530" y="40" width="100" height="440" as="geometry" />
        </mxCell>
        <mxCell id="VOvEn0KjgjUTMuamSDGO-5" value="" style="html=1;points=[];perimeter=orthogonalPerimeter;outlineConnect=0;targetShapes=umlLifeline;portConstraint=eastwest;newEdgeStyle={&quot;edgeStyle&quot;:&quot;elbowEdgeStyle&quot;,&quot;elbow&quot;:&quot;vertical&quot;,&quot;curved&quot;:0,&quot;rounded&quot;:0};" vertex="1" parent="VOvEn0KjgjUTMuamSDGO-1">
          <mxGeometry x="45" y="80" width="10" height="310" as="geometry" />
        </mxCell>
        <mxCell id="VOvEn0KjgjUTMuamSDGO-3" value="" style="endArrow=classic;html=1;rounded=0;" edge="1" parent="1" target="aM9ryv3xv72pqoxQDRHE-6">
          <mxGeometry width="50" height="50" relative="1" as="geometry">
            <mxPoint x="90" y="130" as="sourcePoint" />
            <mxPoint x="260" y="130" as="targetPoint" />
          </mxGeometry>
        </mxCell>
        <mxCell id="VOvEn0KjgjUTMuamSDGO-6" value="" style="edgeStyle=elbowEdgeStyle;rounded=0;orthogonalLoop=1;jettySize=auto;html=1;elbow=vertical;curved=0;" edge="1" parent="1">
          <mxGeometry relative="1" as="geometry">
            <mxPoint x="405" y="169.995641025641" as="sourcePoint" />
            <mxPoint x="575" y="169.995641025641" as="targetPoint" />
          </mxGeometry>
        </mxCell>
        <mxCell id="VOvEn0KjgjUTMuamSDGO-7" value="&lt;font style=&quot;font-size: 10px;&quot;&gt;Chọn và thêm món ăn vào giỏ hàng&lt;/font&gt;" style="text;html=1;align=center;verticalAlign=middle;whiteSpace=wrap;rounded=0;" vertex="1" parent="1">
          <mxGeometry x="150" y="100" width="170" height="30" as="geometry" />
        </mxCell>
        <mxCell id="VOvEn0KjgjUTMuamSDGO-13" value="" style="endArrow=classic;html=1;rounded=0;" edge="1" parent="1">
          <mxGeometry width="50" height="50" relative="1" as="geometry">
            <mxPoint x="90" y="160" as="sourcePoint" />
            <mxPoint x="395" y="160" as="targetPoint" />
          </mxGeometry>
        </mxCell>
        <mxCell id="VOvEn0KjgjUTMuamSDGO-14" value="&lt;span style=&quot;font-size: 10px;&quot;&gt;Gửi đơn&amp;nbsp;&lt;/span&gt;" style="text;html=1;align=center;verticalAlign=middle;whiteSpace=wrap;rounded=0;" vertex="1" parent="1">
          <mxGeometry x="150" y="130" width="170" height="30" as="geometry" />
        </mxCell>
        <mxCell id="VOvEn0KjgjUTMuamSDGO-15" value="&lt;span style=&quot;font-size: 10px;&quot;&gt;Chuyển đơn hàng&lt;/span&gt;" style="text;html=1;align=center;verticalAlign=middle;whiteSpace=wrap;rounded=0;" vertex="1" parent="1">
          <mxGeometry x="400" y="140" width="170" height="30" as="geometry" />
        </mxCell>
        <mxCell id="VOvEn0KjgjUTMuamSDGO-18" value="" style="edgeStyle=elbowEdgeStyle;rounded=0;orthogonalLoop=1;jettySize=auto;html=1;elbow=vertical;curved=0;dashed=1;" edge="1" parent="1" source="aM9ryv3xv72pqoxQDRHE-6" target="aM9ryv3xv72pqoxQDRHE-1">
          <mxGeometry relative="1" as="geometry">
            <mxPoint x="315" y="205" as="targetPoint" />
            <Array as="points">
              <mxPoint x="350" y="190" />
            </Array>
          </mxGeometry>
        </mxCell>
        <mxCell id="VOvEn0KjgjUTMuamSDGO-19" value="&lt;span style=&quot;font-size: 10px;&quot;&gt;Thông báo &quot;chờ xử lý&quot; qua WebSocket&lt;/span&gt;" style="text;html=1;align=center;verticalAlign=middle;whiteSpace=wrap;rounded=0;" vertex="1" parent="1">
          <mxGeometry x="135" y="160" width="200" height="30" as="geometry" />
        </mxCell>
        <mxCell id="VOvEn0KjgjUTMuamSDGO-21" value="" style="endArrow=classic;html=1;rounded=0;dashed=1;" edge="1" parent="1">
          <mxGeometry width="50" height="50" relative="1" as="geometry">
            <mxPoint x="574" y="240" as="sourcePoint" />
            <mxPoint x="404" y="240" as="targetPoint" />
            <Array as="points">
              <mxPoint x="449" y="240" />
            </Array>
          </mxGeometry>
        </mxCell>
        <mxCell id="VOvEn0KjgjUTMuamSDGO-22" value="&lt;span style=&quot;font-size: 10px;&quot;&gt;Cập nhật trạng thái &quot;Từ chối&quot;&lt;/span&gt;" style="text;html=1;align=center;verticalAlign=middle;whiteSpace=wrap;rounded=0;" vertex="1" parent="1">
          <mxGeometry x="400" y="210" width="170" height="30" as="geometry" />
        </mxCell>
        <mxCell id="VOvEn0KjgjUTMuamSDGO-23" value="" style="edgeStyle=elbowEdgeStyle;rounded=0;orthogonalLoop=1;jettySize=auto;html=1;elbow=vertical;curved=0;dashed=1;" edge="1" parent="1">
          <mxGeometry relative="1" as="geometry">
            <mxPoint x="395" y="260" as="sourcePoint" />
            <mxPoint x="90" y="260" as="targetPoint" />
            <Array as="points">
              <mxPoint x="350" y="260" />
            </Array>
          </mxGeometry>
        </mxCell>
        <mxCell id="VOvEn0KjgjUTMuamSDGO-24" value="&lt;span style=&quot;font-size: 10px;&quot;&gt;Thông báo trạng thái &quot;Từ chối&quot; qua WebSocket&lt;/span&gt;" style="text;html=1;align=center;verticalAlign=middle;whiteSpace=wrap;rounded=0;" vertex="1" parent="1">
          <mxGeometry x="140" y="230" width="220" height="30" as="geometry" />
        </mxCell>
        <mxCell id="VOvEn0KjgjUTMuamSDGO-27" value="" style="endArrow=classic;html=1;rounded=0;dashed=1;" edge="1" parent="1">
          <mxGeometry width="50" height="50" relative="1" as="geometry">
            <mxPoint x="574" y="300" as="sourcePoint" />
            <mxPoint x="404" y="300" as="targetPoint" />
            <Array as="points">
              <mxPoint x="449" y="300" />
            </Array>
          </mxGeometry>
        </mxCell>
        <mxCell id="VOvEn0KjgjUTMuamSDGO-28" value="&lt;span style=&quot;font-size: 10px;&quot;&gt;Cập nhật trạng thái &quot;Đang nấu&quot;&lt;/span&gt;" style="text;html=1;align=center;verticalAlign=middle;whiteSpace=wrap;rounded=0;" vertex="1" parent="1">
          <mxGeometry x="400" y="270" width="170" height="30" as="geometry" />
        </mxCell>
        <mxCell id="VOvEn0KjgjUTMuamSDGO-31" value="" style="edgeStyle=elbowEdgeStyle;rounded=0;orthogonalLoop=1;jettySize=auto;html=1;elbow=vertical;curved=0;dashed=1;" edge="1" parent="1" source="VOvEn0KjgjUTMuamSDGO-5">
          <mxGeometry relative="1" as="geometry">
            <mxPoint x="570" y="370" as="sourcePoint" />
            <mxPoint x="90" y="370" as="targetPoint" />
            <Array as="points">
              <mxPoint x="350" y="370" />
            </Array>
          </mxGeometry>
        </mxCell>
        <mxCell id="VOvEn0KjgjUTMuamSDGO-35" value="" style="endArrow=classic;html=1;rounded=0;dashed=1;" edge="1" parent="1">
          <mxGeometry width="50" height="50" relative="1" as="geometry">
            <mxPoint x="574" y="410" as="sourcePoint" />
            <mxPoint x="404" y="410" as="targetPoint" />
            <Array as="points">
              <mxPoint x="449" y="410" />
            </Array>
          </mxGeometry>
        </mxCell>
        <mxCell id="VOvEn0KjgjUTMuamSDGO-36" value="&lt;span style=&quot;font-size: 10px;&quot;&gt;Cập nhật trạng thái &quot;Đã phục vụ&quot;&lt;/span&gt;" style="text;html=1;align=center;verticalAlign=middle;whiteSpace=wrap;rounded=0;" vertex="1" parent="1">
          <mxGeometry x="410" y="382" width="170" height="30" as="geometry" />
        </mxCell>
        <mxCell id="VOvEn0KjgjUTMuamSDGO-37" value="" style="edgeStyle=elbowEdgeStyle;rounded=0;orthogonalLoop=1;jettySize=auto;html=1;elbow=vertical;curved=0;dashed=1;" edge="1" parent="1">
          <mxGeometry relative="1" as="geometry">
            <mxPoint x="395" y="432" as="sourcePoint" />
            <mxPoint x="90" y="432" as="targetPoint" />
            <Array as="points">
              <mxPoint x="350" y="432" />
            </Array>
          </mxGeometry>
        </mxCell>
        <mxCell id="VOvEn0KjgjUTMuamSDGO-38" value="&lt;span style=&quot;font-size: 10px;&quot;&gt;Thông báo trạng thái &quot;Đã phục vụ&quot; qua WebSocket&lt;/span&gt;" style="text;html=1;align=center;verticalAlign=middle;whiteSpace=wrap;rounded=0;" vertex="1" parent="1">
          <mxGeometry x="140" y="400" width="230" height="30" as="geometry" />
        </mxCell>
        <mxCell id="VOvEn0KjgjUTMuamSDGO-42" value="alt" style="shape=umlFrame;whiteSpace=wrap;html=1;pointerEvents=0;recursiveResize=0;container=1;collapsible=0;width=60;height=20;" vertex="1" parent="1">
          <mxGeometry x="-60" y="210" width="660" height="240" as="geometry" />
        </mxCell>
        <mxCell id="VOvEn0KjgjUTMuamSDGO-43" value="[Không thể chế biến]" style="text;html=1;" vertex="1" parent="VOvEn0KjgjUTMuamSDGO-42">
          <mxGeometry width="100" height="20" relative="1" as="geometry">
            <mxPoint x="20" y="40" as="offset" />
          </mxGeometry>
        </mxCell>
        <mxCell id="VOvEn0KjgjUTMuamSDGO-44" value="[Đủ điều kiện]" style="line;strokeWidth=1;dashed=1;labelPosition=center;verticalLabelPosition=bottom;align=left;verticalAlign=top;spacingLeft=20;spacingTop=15;html=1;whiteSpace=wrap;" vertex="1" parent="VOvEn0KjgjUTMuamSDGO-42">
          <mxGeometry y="125" width="660" height="10" as="geometry" />
        </mxCell>
        <mxCell id="VOvEn0KjgjUTMuamSDGO-30" value="&lt;span style=&quot;font-size: 10px;&quot;&gt;Thông báo trạng thái &quot;Đang nấu&quot; qua WebSocket&lt;/span&gt;" style="text;html=1;align=center;verticalAlign=middle;whiteSpace=wrap;rounded=0;" vertex="1" parent="VOvEn0KjgjUTMuamSDGO-42">
          <mxGeometry x="170" y="80" width="230" height="30" as="geometry" />
        </mxCell>
        <mxCell id="VOvEn0KjgjUTMuamSDGO-29" value="" style="edgeStyle=elbowEdgeStyle;rounded=0;orthogonalLoop=1;jettySize=auto;html=1;elbow=vertical;curved=0;dashed=1;" edge="1" parent="VOvEn0KjgjUTMuamSDGO-42">
          <mxGeometry relative="1" as="geometry">
            <mxPoint x="454" y="110" as="sourcePoint" />
            <mxPoint x="149" y="110" as="targetPoint" />
            <Array as="points">
              <mxPoint x="409" y="110" />
            </Array>
          </mxGeometry>
        </mxCell>
        <mxCell id="VOvEn0KjgjUTMuamSDGO-32" value="&lt;span style=&quot;font-size: 10px;&quot;&gt;Mang món ra&lt;/span&gt;" style="text;html=1;align=center;verticalAlign=middle;whiteSpace=wrap;rounded=0;" vertex="1" parent="VOvEn0KjgjUTMuamSDGO-42">
          <mxGeometry x="210" y="135" width="170" height="30" as="geometry" />
        </mxCell>
      </root>
    </mxGraphModel>
  </diagram>
</mxfile>
